<?xml version="1.0" standalone="no"?>
<!DOCTYPE svg PUBLIC "-//W3C//DTD SVG 20010904//EN"
 "http://www.w3.org/TR/2001/REC-SVG-20010904/DTD/svg10.dtd">
<svg version="1.0" xmlns="http://www.w3.org/2000/svg"
 width="436.000000pt" height="406.916210pt" viewBox="0 0 436.000000 406.916210"
 preserveAspectRatio="xMidYMid meet">
<metadata>
Created by potrace 1.12, written by Peter Selinger 2001-2015
</metadata>
<g transform="translate(0.000000,422.993606) scale(0.100000,-0.100000)"
fill="#000000" stroke="none">
<path d="M1727 4220 c-49 -9 -54 -16 -30 -37 11 -10 28 -31 37 -48 9 -16 28
-45 41 -64 30 -41 31 -62 5 -86 -16 -15 -32 -17 -92 -13 -79 5 -171 44 -267
113 l-48 35 -70 -24 c-65 -22 -133 -53 -133 -60 0 -1 22 -17 49 -34 68 -45
111 -87 111 -109 0 -76 -150 -90 -339 -33 -96 30 -114 27 -187 -30 -35 -27
-69 -50 -75 -50 -31 0 5 -24 71 -47 88 -30 120 -55 120 -95 0 -67 -151 -115
-326 -103 l-101 7 -44 -56 c-24 -30 -54 -71 -65 -90 l-22 -34 30 -6 c17 -3 50
-6 73 -6 114 0 158 -58 93 -123 -60 -60 -145 -98 -273 -122 -44 -9 -83 -19
-86 -23 -4 -4 -17 -32 -29 -62 -12 -30 -29 -69 -36 -87 -21 -46 -18 -54 12
-43 14 6 49 10 77 11 38 0 47 3 32 9 -16 7 -11 9 20 9 73 2 102 -40 73 -104
-6 -14 -15 -25 -20 -25 -5 0 -6 -4 -3 -10 4 -6 82 -10 202 -10 l195 0 127 123
c69 68 207 206 305 305 99 100 184 182 189 182 9 0 288 -258 362 -335 22 -23
52 -49 68 -59 15 -9 27 -22 27 -29 0 -8 11 -24 25 -37 23 -21 34 -50 19 -50
-3 0 -38 27 -77 61 -40 33 -81 64 -92 69 -11 4 -34 21 -50 37 -33 32 -197 143
-211 143 -11 0 -77 -112 -88 -147 -9 -29 -33 -30 -41 -2 -6 18 -47 84 -60 98
-5 4 -98 -69 -103 -81 -2 -4 -33 -29 -70 -55 -37 -26 -74 -55 -83 -65 -9 -10
-21 -18 -27 -18 -6 0 -12 -4 -14 -8 -1 -4 -23 -23 -47 -42 -59 -46 -91 -76
-91 -84 0 -3 580 -6 1290 -6 710 0 1290 3 1290 8 0 11 -71 67 -126 100 -27 16
-80 49 -119 74 -38 25 -79 48 -90 52 -11 3 -35 19 -54 35 -18 16 -51 39 -73
51 l-39 22 7 -38 c4 -22 15 -57 25 -79 21 -46 24 -65 8 -65 -5 0 -16 16 -24
34 -8 19 -21 39 -28 43 -7 4 -24 24 -37 43 -14 19 -39 51 -56 70 -17 19 -44
50 -60 68 l-29 33 -107 -26 c-59 -14 -119 -25 -133 -25 -22 0 -24 2 -13 19 6
10 25 27 42 36 17 10 47 32 66 50 20 17 62 49 94 71 32 21 64 43 71 49 10 6
22 1 43 -20 16 -17 51 -48 77 -70 26 -22 60 -51 75 -65 15 -14 51 -45 80 -70
29 -25 75 -67 104 -95 29 -27 70 -63 92 -79 21 -16 68 -55 104 -86 36 -30 84
-68 108 -83 23 -15 42 -34 42 -42 0 -12 18 -15 95 -15 76 0 95 3 95 14 0 29
-147 302 -210 390 -35 50 -94 122 -132 162 -37 39 -68 75 -69 80 0 5 -27 32
-60 59 -33 28 -65 55 -72 60 -7 6 -28 22 -47 35 -19 13 -37 27 -40 30 -11 14
-141 89 -215 126 -44 21 -82 41 -85 44 -11 11 -239 81 -310 94 -41 8 -147 20
-234 25 -88 6 -162 14 -165 17 -8 9 276 -4 379 -17 110 -14 226 -43 318 -80
41 -16 82 -29 92 -29 10 0 20 -4 22 -9 2 -5 27 -21 56 -35 125 -63 310 -196
397 -285 44 -46 76 -68 60 -41 -3 6 -2 10 3 10 6 0 12 -7 16 -15 4 -10 -1 -15
-16 -15 -20 0 -21 -1 -4 -13 10 -7 16 -21 14 -32 -2 -12 3 -19 18 -20 27 -2
56 -35 132 -145 72 -105 147 -242 183 -335 l26 -70 96 -3 95 -3 32 52 32 52
-20 54 c-11 30 -15 52 -10 51 6 -2 20 -28 31 -58 21 -57 22 -53 -21 -117 -25
-40 2 -24 31 17 32 46 32 45 -23 164 -31 66 -40 77 -46 61 -9 -24 -69 -102
-103 -132 -42 -40 -76 -24 -100 46 -22 66 -4 217 38 314 23 53 26 77 11 77 -5
0 -10 -7 -10 -15 0 -17 -36 -138 -50 -170 -13 -28 -3 45 16 112 18 65 18 71
-3 76 -11 3 -7 5 10 6 23 1 27 5 27 31 0 24 -4 30 -22 31 -46 2 -51 4 -56 19
-5 13 -3 13 11 1 10 -7 17 -10 17 -7 0 10 -51 76 -59 76 -13 0 -39 -96 -34
-122 3 -17 1 -28 -5 -28 -6 0 -22 -11 -36 -25 -37 -37 -72 -33 -97 10 -12 19
-27 35 -35 35 -10 0 -15 12 -15 38 -1 20 -2 104 -3 187 l-2 149 -45 34 c-49
37 -117 82 -122 82 -2 0 -7 -38 -9 -84 -7 -98 -25 -136 -68 -136 -47 0 -116
91 -155 205 -7 18 -8 18 -14 3 -5 -15 -8 -14 -18 10 -7 15 -19 52 -26 82 -13
50 -18 57 -63 80 -26 14 -50 32 -52 40 -2 10 -1 11 5 4 4 -6 29 -19 55 -29 58
-22 61 -26 78 -98 18 -77 24 -66 9 16 -11 60 -15 66 -48 82 -63 31 -153 65
-161 60 -4 -2 -1 -32 6 -67 25 -120 15 -158 -42 -158 -49 0 -81 19 -139 83
-28 29 -50 56 -51 58 0 2 -15 36 -33 74 -18 39 -37 79 -41 91 -6 15 -23 23
-73 32 -87 16 -151 16 -144 0 69 -157 77 -191 51 -219 -33 -37 -128 -8 -219
67 -41 34 -62 44 -50 24 3 -5 2 -10 -3 -10 -6 0 -33 27 -62 60 l-52 60 -71 1
c-65 1 -68 2 -32 10 87 18 109 13 154 -36 22 -24 41 -49 41 -55 0 -5 5 -10 10
-10 14 0 0 25 -39 70 -17 19 -31 38 -31 43 0 9 -132 7 -183 -3z m686 -41 c10
-10 23 -34 29 -52 6 -17 16 -39 23 -47 7 -8 16 -26 19 -40 l7 -25 -20 25 c-12
14 -33 51 -48 82 -16 32 -35 58 -43 58 -8 0 -35 7 -60 15 l-45 15 60 -5 c41
-4 65 -12 78 -26z m-965 -125 c40 -26 71 -49 68 -51 -4 -4 -107 47 -136 68
-12 8 -33 6 -84 -9 -38 -12 -65 -17 -59 -11 12 12 103 48 123 49 8 0 48 -21
88 -46z m-458 -206 c54 -15 76 -24 61 -26 -13 -2 -54 4 -92 14 l-68 18 -41
-28 c-23 -15 -44 -25 -47 -22 -6 6 76 66 91 66 6 0 49 -10 96 -22z m2310 -62
l45 -33 2 -109 c1 -68 -2 -100 -7 -84 -4 14 -8 59 -9 100 l-1 74 -47 43 c-57
50 -47 55 17 9z m-1025 -245 c39 -36 75 -73 80 -82 6 -10 25 -36 43 -58 18
-22 28 -42 23 -46 -14 -8 -44 12 -65 44 -10 15 -57 46 -107 71 -49 24 -89 49
-89 54 0 5 -2 7 -5 4 -6 -5 8 -52 66 -232 21 -66 37 -122 34 -124 -9 -10 -47
33 -65 73 -50 110 -70 159 -70 170 0 11 -11 26 -82 102 -29 32 -30 32 -60 17
-64 -33 -203 -117 -213 -128 -11 -13 -207 -126 -218 -126 -4 0 -7 4 -7 10 0
19 187 190 209 190 6 0 11 4 11 8 0 4 57 51 128 105 70 53 140 108 156 121
l28 25 67 -67 c37 -37 98 -96 136 -131z m-1646 -22 c59 -1 62 -2 31 -10 -19
-5 -61 -8 -93 -7 -56 1 -61 -1 -98 -38 -21 -21 -38 -45 -39 -51 0 -13 -20 -19
-20 -7 0 8 72 107 85 117 5 4 23 5 39 2 16 -3 58 -5 95 -6z m3060 -146 c2 -2
-10 -3 -28 -3 -27 0 -30 2 -19 14 10 11 17 11 28 3 8 -6 17 -13 19 -14z
m-3309 -272 c-8 -5 -48 -17 -88 -27 -54 -14 -74 -23 -78 -39 -8 -23 -54 -94
-54 -82 0 5 8 27 19 50 10 23 20 48 23 56 2 8 34 22 74 32 77 19 129 24 104
10z"/>
<path d="M0 2675 l0 -35 158 -1 c228 -1 3455 -1 3860 0 l342 1 0 35 0 35
-2180 0 -2180 0 0 -35z"/>
<path d="M1858 2578 c-43 -41 -62 -95 -54 -156 14 -102 80 -149 174 -123 50
13 72 27 72 45 0 6 -5 3 -11 -6 -5 -10 -15 -18 -21 -18 -7 0 -7 4 0 13 5 6 11
21 12 32 4 38 -2 40 -14 5 -22 -60 -87 -77 -130 -35 -41 42 -44 180 -5 229 30
39 72 35 102 -9 l23 -34 18 30 c21 35 23 32 -30 47 -68 20 -98 15 -136 -20z"/>
<path d="M2149 2587 c-107 -72 -81 -271 38 -293 62 -12 115 19 126 72 7 39 -5
36 -24 -6 -12 -26 -26 -41 -43 -46 -31 -7 -69 4 -60 18 4 7 2 8 -4 4 -23 -14
-47 45 -47 114 0 84 26 134 73 138 26 3 35 -2 54 -32 13 -20 25 -36 28 -36 6
0 32 63 27 65 -12 6 -101 25 -116 25 -10 0 -33 -10 -52 -23z"/>
<path d="M368 2588 c7 -7 12 -37 12 -68 0 -52 -2 -57 -27 -67 l-28 -11 30 -1
c23 -1 27 -3 15 -11 -10 -6 -11 -10 -2 -10 20 0 16 -97 -5 -109 -14 -8 -4 -10
42 -10 52 0 58 1 43 13 -13 10 -18 28 -18 68 l0 56 55 4 c61 5 90 25 98 66 12
61 -41 92 -155 92 -56 0 -69 -3 -60 -12z m138 -16 c23 -15 34 -50 25 -75 -11
-27 -29 -37 -72 -37 -29 0 -29 0 -29 60 l0 60 33 0 c17 0 37 -4 43 -8z"/>
<path d="M442 2513 l1 -48 4 42 c4 39 7 42 36 46 31 4 31 4 -5 5 l-38 2 2 -47z"/>
<path d="M670 2585 c-19 -7 -29 -14 -22 -14 8 -1 12 -21 12 -66 0 -58 -2 -65
-20 -65 -28 0 -25 -20 3 -21 21 0 21 -1 2 -9 -17 -7 -17 -9 -2 -9 23 -1 23
-57 0 -83 -15 -17 -14 -18 30 -18 46 0 70 13 42 24 -11 4 -15 20 -15 55 0 42
3 49 23 55 30 8 47 7 45 -1 -1 -5 4 -21 11 -38 7 -16 17 -51 22 -77 6 -26 12
-48 14 -48 4 0 57 22 64 27 2 1 -10 19 -26 40 -17 21 -38 53 -48 72 -16 33
-16 34 1 44 10 6 29 21 42 34 70 70 -62 143 -178 98z m119 -14 c10 -7 0 -8
-30 -6 l-44 4 43 -9 c54 -12 62 -17 62 -41 0 -27 -22 -48 -62 -60 -56 -16 -58
-14 -58 56 l0 65 38 0 c20 0 44 -4 51 -9z"/>
<path d="M987 2582 c-34 -21 -67 -86 -67 -132 0 -19 9 -53 20 -76 44 -91 171
-99 215 -14 21 40 21 129 1 172 -30 63 -110 87 -169 50z m68 -12 c-30 -8 -30
-8 7 -9 49 -1 62 -26 62 -113 0 -53 -4 -74 -20 -95 -26 -35 -62 -40 -96 -13
-47 37 -48 178 -2 225 8 8 30 14 47 14 l32 -1 -30 -8z"/>
<path d="M993 2445 c0 -33 2 -45 4 -27 2 18 2 45 0 60 -2 15 -4 0 -4 -33z"/>
<path d="M1238 2588 c17 -17 17 -259 0 -276 -18 -18 114 -16 158 3 48 20 79
88 71 156 -11 94 -58 129 -174 129 -52 0 -64 -3 -55 -12z m144 -33 c34 -31 45
-98 28 -161 -14 -50 -41 -74 -82 -74 l-28 0 0 130 0 130 28 0 c15 0 39 -11 54
-25z"/>
<path d="M1312 2448 l2 -123 3 117 c3 111 5 117 26 121 18 4 18 4 -5 6 l-28 1
2 -122z"/>
<path d="M1520 2590 c0 -5 5 -10 10 -10 6 0 10 -42 10 -106 0 -160 26 -201
122 -192 79 8 84 18 80 162 -3 82 0 126 7 130 23 15 9 26 -31 26 l-41 0 23
-20 c22 -19 22 -25 18 -131 -4 -94 -8 -114 -23 -125 -22 -17 -59 -18 -86 -4
-17 10 -19 22 -19 130 0 68 4 121 10 125 23 14 7 25 -35 25 -25 0 -45 -4 -45
-10z"/>
<path d="M2378 2588 c8 -8 12 -53 12 -138 0 -85 -4 -130 -12 -138 -9 -9 1 -12
47 -12 57 0 58 1 37 16 -21 14 -22 23 -22 131 0 94 3 120 17 135 15 17 14 18
-37 18 -42 0 -51 -3 -42 -12z"/>
<path d="M2578 2585 c-31 -17 -68 -89 -68 -133 0 -106 103 -182 187 -138 36
18 73 87 73 134 0 47 -38 120 -71 137 -35 19 -86 18 -121 0z m70 -12 c-27 -4
-61 -33 -39 -33 6 0 11 5 11 10 0 16 66 12 80 -5 16 -19 17 -144 1 -183 -17
-41 -62 -52 -100 -25 -49 37 -53 180 -5 228 8 8 30 14 47 14 29 -2 30 -2 5 -6z"/>
<path d="M2583 2440 c0 -36 2 -50 4 -32 2 17 2 47 0 65 -2 17 -4 3 -4 -33z"/>
<path d="M2828 2588 c13 -13 17 -245 4 -264 -4 -6 -14 -14 -22 -17 -8 -3 9 -6
38 -6 48 -1 52 1 38 14 -21 21 -28 66 -24 155 l3 75 16 -30 c9 -16 37 -72 63
-122 35 -69 52 -93 66 -93 19 0 20 8 20 130 0 117 2 132 20 150 l20 20 -46 0
c-41 0 -44 -1 -30 -16 13 -12 16 -38 16 -117 l0 -102 -24 40 c-30 52 -43 90
-26 80 9 -5 11 -4 6 4 -4 6 -11 9 -16 6 -5 -3 -19 13 -30 35 -17 33 -19 45 -9
56 10 12 3 14 -42 14 -41 0 -50 -3 -41 -12z"/>
<path d="M3123 2586 c12 -10 17 -27 17 -64 0 -42 -3 -52 -20 -57 -27 -9 -25
-24 3 -18 21 4 21 4 -3 -12 -23 -15 -24 -15 -2 -10 21 6 22 3 22 -46 0 -38 -5
-55 -17 -65 -15 -11 1 -13 109 -14 l128 0 -18 35 c-17 35 -32 45 -32 22 0 -18
-43 -37 -85 -37 l-35 0 0 65 0 65 38 -1 37 -2 -35 -6 -35 -7 43 -5 42 -5 0 41
c-1 35 -2 38 -14 23 -7 -10 -26 -18 -44 -18 -30 0 -30 1 -34 55 l-3 55 46 0
c37 0 50 -5 63 -22 14 -22 16 -22 29 -6 8 10 16 16 18 13 3 -2 5 5 5 15 0 19
-8 20 -121 20 -102 -1 -117 -3 -102 -14z"/>
<path d="M3460 2593 c-26 -10 -50 -45 -50 -72 0 -45 26 -69 98 -90 88 -27 112
-61 72 -101 -36 -36 -140 -14 -140 30 0 31 -14 24 -32 -15 l-16 -35 31 0 c17
0 27 -3 23 -7 -3 -4 -80 -10 -169 -14 l-162 -7 170 3 c94 1 179 6 189 11 15 5
17 4 11 -6 -6 -10 4 -12 50 -8 76 6 97 30 93 101 -3 45 -6 51 -38 68 -19 10
-56 23 -82 30 -50 12 -65 32 -53 70 4 13 12 18 21 15 9 -3 12 -1 9 5 -4 6 3 7
22 3 38 -9 63 -23 63 -34 0 -18 19 -10 25 10 4 11 11 18 16 14 5 -3 8 0 7 8
-5 21 -118 36 -158 21z"/>
<path d="M1604 2485 c0 -49 1 -71 3 -48 2 23 2 64 0 90 -2 26 -3 8 -3 -42z"/>
<path d="M1910 2561 c0 -4 11 -6 25 -3 14 2 25 6 25 8 0 2 -11 4 -25 4 -14 0
-25 -4 -25 -9z"/>
<path d="M2187 2563 c-4 -3 -7 -11 -7 -17 0 -7 3 -7 8 0 4 7 18 14 32 17 l25
4 -26 2 c-14 0 -29 -2 -32 -6z"/>
<path d="M2454 2450 c0 -69 1 -97 3 -62 2 34 2 90 0 125 -2 34 -3 6 -3 -63z"/>
<path d="M3218 2563 c12 -2 32 -2 45 0 12 2 2 4 -23 4 -25 0 -35 -2 -22 -4z"/>
<path d="M3203 2515 c0 -22 2 -30 4 -17 2 12 2 30 0 40 -3 9 -5 -1 -4 -23z"/>
<path d="M1193 2445 c0 -27 2 -38 4 -22 2 15 2 37 0 50 -2 12 -4 0 -4 -28z"/>
<path d="M1483 2450 c0 -25 2 -35 4 -22 2 12 2 32 0 45 -2 12 -4 2 -4 -23z"/>
<path d="M1873 2450 c0 -25 2 -35 4 -22 2 12 2 32 0 45 -2 12 -4 2 -4 -23z"/>
<path d="M2153 2445 c0 -27 2 -38 4 -22 2 15 2 37 0 50 -2 12 -4 0 -4 -28z"/>
<path d="M2783 2450 c0 -25 2 -35 4 -22 2 12 2 32 0 45 -2 12 -4 2 -4 -23z"/>
<path d="M555 2445 c-16 -8 -50 -15 -75 -16 -40 -2 -42 -3 -11 -6 38 -5 121
15 121 28 0 5 -1 9 -2 8 -2 0 -16 -7 -33 -14z"/>
<path d="M3203 2375 c0 -27 2 -38 4 -22 2 15 2 37 0 50 -2 12 -4 0 -4 -28z"/>
<path d="M443 2370 c0 -25 2 -35 4 -22 2 12 2 32 0 45 -2 12 -4 2 -4 -23z"/>
<path d="M2321 2358 c0 -9 -4 -25 -7 -35 -5 -17 -5 -17 6 0 6 10 9 25 7 35 -4
15 -5 15 -6 0z"/>
<path d="M1131 2314 c-21 -15 -50 -25 -75 -26 -39 -1 -39 -1 -7 -5 39 -5 82
10 107 38 22 24 17 23 -25 -7z"/>
<path d="M1445 2331 c-6 -6 -23 -17 -40 -25 -18 -10 -23 -16 -13 -16 15 0 81
49 68 50 -4 0 -10 -4 -15 -9z"/>
<path d="M2726 2319 c-14 -11 -48 -25 -74 -29 l-47 -9 53 3 c42 3 60 9 80 30
32 31 25 34 -12 5z"/>
<path d="M1996 2293 c-3 -4 -25 -10 -49 -14 -41 -6 -41 -7 -7 -7 19 -1 46 5
60 13 14 8 20 14 14 15 -6 0 -14 -3 -18 -7z"/>
<path d="M2276 2293 c-3 -4 -25 -10 -49 -14 l-42 -8 48 3 c27 2 54 9 60 15 7
7 7 11 1 11 -6 0 -14 -3 -18 -7z"/>
<path d="M3020 2290 l-25 -8 28 -1 c15 -1 27 4 27 9 0 6 -1 10 -2 9 -2 -1 -14
-5 -28 -9z"/>
<path d="M388 2283 c17 -2 47 -2 65 0 17 2 3 4 -33 4 -36 0 -50 -2 -32 -4z"/>
<path d="M668 2283 c17 -2 47 -2 65 0 17 2 3 4 -33 4 -36 0 -50 -2 -32 -4z"/>
<path d="M1263 2283 c20 -2 54 -2 75 0 20 2 3 4 -38 4 -41 0 -58 -2 -37 -4z"/>
<path d="M2397 2283 c18 -2 50 -2 70 0 21 2 7 4 -32 4 -38 0 -55 -2 -38 -4z"/>
<path d="M2827 2283 c18 -2 50 -2 70 0 21 2 7 4 -32 4 -38 0 -55 -2 -38 -4z"/>
<path d="M1507 2240 c-20 -24 -21 -30 -4 -30 8 0 24 11 37 25 22 23 22 25 4
25 -11 0 -27 -9 -37 -20z"/>
<path d="M1070 2151 c0 -6 5 -11 10 -11 6 0 10 -27 10 -60 0 -44 -4 -60 -14
-60 -7 0 -19 -6 -25 -14 -9 -11 -6 -13 16 -9 24 3 25 2 8 -6 -17 -8 -18 -10
-2 -10 14 -1 17 -10 17 -51 0 -27 -4 -50 -10 -50 -5 0 -10 -4 -10 -10 0 -5 20
-10 45 -10 25 0 45 5 45 10 0 6 -4 10 -10 10 -6 0 -10 27 -10 60 l0 60 39 0
c21 0 52 5 69 11 53 18 63 91 17 129 -22 18 -195 28 -195 11z m155 -25 c20
-14 25 -70 9 -86 -5 -5 -24 -13 -42 -16 -31 -6 -32 -6 -33 32 l-2 39 -7 -40
c-7 -37 -7 -35 -9 23 l-1 62 33 0 c18 0 42 -6 52 -14z"/>
<path d="M1163 2113 c9 -2 25 -2 35 0 9 3 1 5 -18 5 -19 0 -27 -2 -17 -5z"/>
<path d="M1449 2146 c10 -11 9 -24 0 -55 -11 -37 -19 -46 -41 -42 -4 0 -12 -8
-18 -19 -9 -16 -8 -20 5 -20 31 0 5 -77 -42 -125 l-26 -25 58 0 c57 0 58 0 40
20 -13 14 -16 28 -11 54 9 48 21 52 47 16 l23 -30 22 27 23 28 16 -40 c13 -30
14 -44 6 -57 -10 -16 -6 -18 45 -18 l57 0 -25 25 c-22 22 -48 83 -48 114 0 6
7 11 16 11 11 0 14 5 10 16 -3 9 -6 18 -6 20 0 3 -8 0 -19 -5 -16 -9 -22 -4
-40 40 -18 40 -20 54 -10 65 10 12 3 14 -41 14 -44 0 -51 -2 -41 -14z m35 -61
c-4 -8 -2 -15 4 -15 6 0 16 -16 22 -36 10 -30 9 -38 -6 -55 -18 -20 -18 -19
-41 7 -13 15 -23 29 -23 30 0 14 34 84 41 84 5 0 6 -7 3 -15z"/>
<path d="M1741 2148 c-25 -7 -31 -12 -22 -21 6 -6 11 -37 11 -69 0 -51 -2 -58
-20 -58 -11 0 -20 -4 -20 -10 0 -5 8 -10 18 -10 23 0 28 -65 7 -97 l-15 -23
52 0 c46 1 51 2 36 14 -13 9 -18 27 -18 63 0 44 3 51 23 57 30 8 47 7 45 -1
-1 -5 4 -21 11 -38 7 -16 16 -49 21 -73 4 -24 10 -45 13 -48 3 -4 49 12 65 22
2 1 -14 26 -36 56 -56 75 -59 90 -21 112 44 26 56 58 35 91 -9 14 -28 30 -42
35 -31 12 -98 11 -143 -2z m79 -18 l-35 -7 41 -2 c49 -1 69 -20 60 -56 -7 -26
-32 -41 -88 -52 l-28 -5 0 66 0 66 43 -1 42 -2 -35 -7z"/>
<path d="M2114 2120 c-2 -46 -26 -89 -50 -86 -9 0 -19 -5 -21 -11 -3 -7 2 -13
11 -13 20 0 20 -18 1 -61 -18 -42 -34 -62 -60 -77 -17 -9 -9 -11 43 -12 58 0
62 1 48 16 -9 8 -16 25 -15 37 0 21 1 21 9 2 7 -14 8 -10 4 16 -8 48 9 57 37
19 23 -30 23 -30 41 -10 26 28 35 25 48 -15 9 -28 9 -39 0 -50 -11 -13 -4 -15
51 -15 58 1 62 2 41 14 -21 11 -62 83 -62 107 0 5 15 10 33 10 l32 2 -35 7
c-19 4 -27 8 -17 9 19 1 21 9 8 30 -8 12 -12 12 -24 2 -18 -14 -23 -8 -41 53
-10 32 -10 48 -3 55 8 8 -2 11 -34 11 l-44 0 -1 -40z m30 -35 c-4 -8 -2 -15 3
-15 5 0 15 -17 21 -37 10 -31 9 -40 -5 -55 -17 -19 -35 -12 -53 22 -10 19 16
100 31 100 5 0 6 -7 3 -15z"/>
<path d="M2368 2148 c8 -8 12 -53 12 -135 0 -101 -3 -125 -15 -129 -28 -11
-15 -24 25 -24 22 0 40 5 40 11 0 5 -4 8 -9 5 -16 -10 -21 23 -20 122 1 53 4
86 6 73 3 -14 10 -34 17 -45 7 -12 24 -54 37 -93 13 -40 27 -73 30 -73 4 0 26
52 49 115 24 63 44 115 44 115 1 0 3 -45 4 -101 3 -87 0 -103 -15 -115 -16
-12 -11 -13 42 -13 46 0 55 2 38 9 -22 9 -23 14 -23 131 0 100 3 126 17 141
15 17 14 18 -41 18 -52 0 -55 -1 -45 -18 9 -15 7 -33 -11 -88 -12 -38 -26 -73
-31 -78 -5 -6 -9 -19 -10 -30 0 -21 0 -21 -9 -1 -5 11 -21 58 -35 104 -25 79
-25 84 -8 97 16 12 11 13 -41 14 -47 0 -57 -3 -48 -12z"/>
<path d="M2777 2145 c-42 -22 -56 -39 -66 -86 -15 -68 -4 -122 34 -159 58 -56
142 -50 187 13 18 25 22 45 22 101 0 45 -4 71 -12 74 -7 2 -12 10 -12 18 0 20
-59 54 -95 54 -16 0 -42 -7 -58 -15z m60 -12 c-26 -4 -66 -47 -54 -59 3 -3 8
4 12 15 3 12 18 24 33 27 15 3 33 7 40 10 7 2 11 0 7 -5 -3 -5 0 -11 6 -13 15
-5 30 -95 23 -138 -12 -66 -31 -90 -75 -90 -54 0 -88 78 -74 173 9 58 36 87
78 86 30 -2 31 -2 4 -6z"/>
<path d="M2773 1990 c0 -36 2 -50 4 -32 2 17 2 47 0 65 -2 17 -4 3 -4 -33z"/>
<path d="M2973 2010 c0 -25 2 -35 4 -22 2 12 2 32 0 45 -2 12 -4 2 -4 -23z"/>
<path d="M1265 2005 c-16 -8 -49 -14 -72 -15 l-43 0 2 -52 2 -53 3 46 4 46 56
6 c31 3 63 13 72 21 18 19 16 19 -24 1z"/>
<path d="M1590 1991 c0 -4 11 -6 25 -3 14 2 25 6 25 8 0 2 -11 4 -25 4 -14 0
-25 -4 -25 -9z"/>
<path d="M2946 1902 c-8 -24 -47 -43 -106 -52 l-45 -7 38 -2 c43 -1 111 30
121 55 4 9 5 19 2 21 -2 3 -7 -4 -10 -15z"/>
<path d="M1097 1843 c18 -2 50 -2 70 0 21 2 7 4 -32 4 -38 0 -55 -2 -38 -4z"/>
<path d="M1357 1843 c18 -2 50 -2 70 0 21 2 7 4 -32 4 -38 0 -55 -2 -38 -4z"/>
<path d="M1573 1843 c20 -2 54 -2 75 0 20 2 3 4 -38 4 -41 0 -58 -2 -37 -4z"/>
<path d="M1737 1843 c18 -2 50 -2 70 0 21 2 7 4 -32 4 -38 0 -55 -2 -38 -4z"/>
<path d="M2028 1843 c17 -2 47 -2 65 0 17 2 3 4 -33 4 -36 0 -50 -2 -32 -4z"/>
<path d="M2263 1843 c37 -2 97 -2 135 0 37 2 6 3 -68 3 -74 0 -105 -1 -67 -3z"/>
<path d="M2587 1843 c18 -2 50 -2 70 0 21 2 7 4 -32 4 -38 0 -55 -2 -38 -4z"/>
<path d="M0 1745 l0 -35 2180 0 2180 0 0 35 0 35 -2180 0 -2180 0 0 -35z"/>
<path d="M152 1590 l-44 -70 20 -52 c33 -87 56 -138 64 -138 4 0 26 28 49 63
66 99 106 119 145 76 16 -18 19 -37 19 -133 -1 -94 -5 -125 -29 -198 l-28 -88
26 -42 c14 -24 43 -63 65 -88 35 -40 40 -43 46 -25 4 11 13 36 20 55 7 19 19
50 26 68 15 41 51 66 82 58 59 -14 103 -181 92 -346 l-6 -95 67 -50 c36 -27
75 -59 85 -69 14 -15 19 -16 20 -5 1 19 8 106 13 146 5 46 32 83 60 83 31 0
95 -70 128 -140 14 -30 33 -89 43 -130 26 -115 30 -120 120 -156 99 -41 109
-42 101 -9 -12 46 -19 143 -12 169 5 22 12 26 43 26 45 0 84 -24 148 -92 28
-29 57 -53 65 -53 8 0 31 -29 52 -65 38 -66 69 -88 125 -89 12 -1 25 -6 28
-12 5 -7 -6 -8 -32 -4 -21 3 -53 8 -70 11 -18 3 -33 11 -33 18 0 6 -11 27 -25
46 -31 42 -32 34 -3 -25 13 -27 31 -48 43 -50 41 -9 187 -26 191 -22 2 2 -10
32 -27 68 -36 74 -47 132 -29 154 28 34 124 9 215 -56 25 -18 48 -28 55 -24 8
5 10 2 6 -11 -4 -13 8 -33 38 -66 24 -26 46 -53 48 -60 3 -9 27 -10 112 -1 59
6 110 14 113 17 3 3 -20 34 -51 69 -64 73 -80 119 -50 143 15 12 37 14 104 9
94 -7 140 -25 242 -97 58 -41 61 -41 101 -31 23 7 71 25 106 41 l65 29 -40 25
c-21 14 -49 28 -62 32 -31 10 -73 75 -66 103 15 55 147 69 288 31 45 -11 83
-25 84 -30 5 -10 42 -11 42 0 0 5 -37 19 -82 33 -101 29 -73 38 32 10 l75 -20
46 30 c63 40 72 36 16 -7 -26 -20 -47 -41 -47 -45 0 -15 10 -10 35 15 13 13
44 39 69 57 25 18 46 36 46 40 0 4 -36 19 -80 34 -114 38 -146 82 -94 130 49
46 106 59 269 61 98 1 150 5 153 13 2 6 28 44 58 85 30 41 54 77 54 80 0 3
-17 6 -37 6 -65 0 -153 18 -169 35 -28 27 -20 62 22 101 22 20 56 44 76 55 20
10 39 23 42 28 4 5 20 12 36 16 17 4 28 10 25 15 -3 4 7 11 23 15 123 30 126
32 156 95 16 33 31 59 33 57 5 -5 -36 -119 -47 -130 -4 -5 -32 -15 -61 -23
l-54 -13 55 5 c30 3 59 9 64 14 15 15 84 185 78 192 -4 3 -38 -1 -77 -9 -84
-17 -130 -11 -151 22 -14 21 -14 26 0 53 9 17 21 36 28 44 7 7 22 24 32 36
l19 22 -59 0 -59 0 -24 -62 c-13 -35 -42 -99 -63 -143 -41 -83 -148 -253 -160
-254 -9 -1 20 57 48 94 38 52 136 262 159 343 l6 22 -1605 0 c-1376 0 -1606
-2 -1606 -14 0 -43 105 -253 196 -392 87 -134 149 -204 336 -380 124 -116 350
-245 550 -314 111 -39 80 -38 -41 1 -329 105 -588 298 -844 631 -10 12 -25 38
-34 56 -8 17 -19 32 -24 32 -5 0 -9 5 -9 10 0 6 -11 27 -25 48 -29 45 -121
250 -130 292 l-7 30 -89 0 c-64 0 -89 -3 -89 -12 0 -7 -16 -39 -36 -71 l-37
-59 16 -57 c20 -70 14 -78 -13 -17 -27 63 -25 86 9 133 25 34 48 84 39 83 -2
-1 -22 -32 -46 -70z m254 -461 c-21 -80 -21 -83 14 -134 35 -51 39 -66 9 -39
-38 34 -71 101 -61 121 5 10 18 50 28 88 12 43 20 61 22 48 2 -12 -4 -50 -12
-84z m3228 -171 c-4 -7 -21 -32 -37 -55 l-30 -43 -106 0 c-95 1 -104 2 -87 15
14 10 45 15 103 15 l83 0 36 40 c36 40 52 51 38 28z m-2851 -346 c59 -52 50
-54 -22 -6 -49 33 -53 38 -47 66 3 17 7 60 8 97 2 62 2 60 7 -25 l6 -91 48
-41z m379 -189 c9 -39 16 -46 64 -70 30 -14 52 -28 50 -31 -6 -6 -98 29 -112
42 -10 10 -55 165 -53 184 1 13 39 -81 51 -125z m478 97 c8 -5 11 -12 7 -17
-5 -4 -11 -3 -15 3 -4 6 -14 14 -22 17 -13 5 -13 5 0 6 8 0 22 -3 30 -9z
m1003 -179 c63 -38 69 -39 100 -27 17 7 46 16 62 20 28 7 29 6 10 -7 -11 -8
-41 -22 -67 -32 l-47 -17 -70 43 c-64 40 -84 59 -63 59 4 0 38 -18 75 -39z
m-494 -101 c48 -48 51 -50 94 -44 25 4 52 2 62 -3 13 -8 0 -11 -50 -16 l-67
-6 -54 54 c-30 29 -54 56 -54 59 0 16 24 1 69 -44z"/>
</g>
</svg>
